HIERARCHY
ROOT SpineBase
{
  OFFSET 0.000000 0.000000 0.000000
  CHANNELS 6 Xposition Yposition Zposition Zrotation Xrotation Yrotation
  JOINT SpineMid
  {
    OFFSET 0.000000 33.466218 0.000000
    CHANNELS 3 Zrotation Xrotation Yrotation
    JOINT SpineShoulder
    {
      OFFSET 0.141653 24.836708 -0.991459
      CHANNELS 3 Zrotation Xrotation Yrotation
      JOINT Neck
      {
        OFFSET 0.129020 8.215455 -0.698020
        CHANNELS 3 Zrotation Xrotation Yrotation
        JOINT Head
        {
          OFFSET 9.160881 9.365329 0.096336
          CHANNELS 3 Zrotation Xrotation Yrotation
          End Site
          {
            OFFSET 0 0 0
          }
        }
      }
      JOINT ShoulderLeft
      {
        OFFSET -10.629537 -1.278562 -10.915042
        CHANNELS 3 Zrotation Xrotation Yrotation
        JOINT ElbowLeft
        {
          OFFSET -7.989155 -24.343227 -4.812882
          CHANNELS 3 Zrotation Xrotation Yrotation
          JOINT WristLeft
          {
            OFFSET 1.056274 -25.646903 -5.126889
            CHANNELS 3 Zrotation Xrotation Yrotation
            JOINT HandLeft
            {
              OFFSET -0.364817 -6.816526 -0.519814
              CHANNELS 3 Zrotation Xrotation Yrotation
              JOINT HandTipLeft
              {
                OFFSET -0.310017 -6.823359 0.232716
                CHANNELS 3 Zrotation Xrotation Yrotation
                End Site
                {
                  OFFSET 0 0 0
                }
              }
              JOINT ThumbLeft
              {
                OFFSET -1.929712 -0.770437 -2.676799
                CHANNELS 3 Zrotation Xrotation Yrotation
                End Site
                {
                  OFFSET 0 0 0
                }
              }
            }
          }
        }
      }
      JOINT ShoulderRight
      {
        OFFSET 9.583939 -9.735817 13.486136
        CHANNELS 3 Zrotation Xrotation Yrotation
        JOINT ElbowRight
        {
          OFFSET 1.636225 -24.627344 2.274612
          CHANNELS 3 Zrotation Xrotation Yrotation
          JOINT WristRight
          {
            OFFSET 4.430676 -21.736650 -8.877245
            CHANNELS 3 Zrotation Xrotation Yrotation
            JOINT HandRight
            {
              OFFSET 0.791825 -4.127003 -2.806656
              CHANNELS 3 Zrotation Xrotation Yrotation
              JOINT HandTipRight
              {
                OFFSET -0.928416 -7.777433 -2.222471
                CHANNELS 3 Zrotation Xrotation Yrotation
                End Site
                {
                  OFFSET 0 0 0
                }
              }
              JOINT ThumbRight
              {
                OFFSET -3.274922 0.612982 -3.537604
                CHANNELS 3 Zrotation Xrotation Yrotation
                End Site
                {
                  OFFSET 0 0 0
                }
              }
            }
          }
        }
      }
    }
  }
  JOINT HipLeft
  {
    OFFSET -3.871875 1.967255 -8.928344
    CHANNELS 3 Zrotation Xrotation Yrotation
    JOINT KneeLeft
    {
      OFFSET -1.786427 -34.852431 -9.377269
      CHANNELS 3 Zrotation Xrotation Yrotation
      JOINT AnkleLeft
      {
        OFFSET -3.422298 -37.439486 1.721928
        CHANNELS 3 Zrotation Xrotation Yrotation
        JOINT FootLeft
        {
          OFFSET 9.741101 -2.837139 -11.513713
          CHANNELS 3 Zrotation Xrotation Yrotation
          End Site
          {
            OFFSET 0 0 0
          }
        }
      }
    }
  }
  JOINT HipRight
  {
    OFFSET 5.102122 0.141952 1.223733
    CHANNELS 3 Zrotation Xrotation Yrotation
    JOINT KneeRight
    {
      OFFSET 4.262312 -34.469053 -2.246351
      CHANNELS 3 Zrotation Xrotation Yrotation
      JOINT AnkleRight
      {
        OFFSET -9.736532 -38.770087 2.011940
        CHANNELS 3 Zrotation Xrotation Yrotation
        JOINT FootRight
        {
          OFFSET 5.334014 -7.117038 -6.320172
          CHANNELS 3 Zrotation Xrotation Yrotation
          End Site
          {
            OFFSET 0 0 0
          }
        }
      }
    }
  }
}
MOTION
Frames: 16
Frame Time: 0.033333
-51.939376 83.273090 356.964917 -0.000000 0.000000 -48.524710 -0.000000 0.000000 48.524710 -0.000000 0.000000 0.000000 -0.000000 0.000000 0.000000 0.000000 0.000000 0.000000 -0.000000 0.000000 0.000000 -0.000000 0.000000 0.000000 -0.000000 0.000000 0.000000 -0.000000 0.000000 0.000000 0.000000 0.000000 0.000000 0.000000 0.000000 0.000000 -0.000000 0.000000 0.000000 -0.000000 0.000000 0.000000 -0.000000 0.000000 0.000000 -0.000000 0.000000 0.000000 0.000000 0.000000 0.000000 0.000000 0.000000 0.000000 -0.000000 0.000000 48.524710 -0.000000 0.000000 0.000000 -0.000000 0.000000 0.000000 0.000000 0.000000 0.000000 -0.000000 0.000000 48.524710 -0.000000 0.000000 0.000000 -0.000000 0.000000 0.000000 0.000000 0.000000 0.000000
-51.232972 83.424055 356.763404 0.452353 -0.139818 -48.964712 -0.402446 -0.249419 48.964388 -0.000000 0.000000 0.000000 -0.000000 0.000000 0.000000 0.000000 0.000000 0.000000 0.526432 0.710695 -0.340686 -0.359479 0.100645 0.335055 4.706669 1.459226 -0.522729 -2.045712 0.908083 0.381639 0.000000 0.000000 0.000000 0.000000 0.000000 0.000000 -0.000000 0.000000 0.000000 -0.783821 -0.132229 0.292806 -2.864122 -3.148660 1.493224 0.591247 8.858466 -1.381993 0.000000 0.000000 0.000000 0.000000 0.000000 0.000000 -0.402446 -0.249419 48.964388 -0.000000 0.000000 0.000000 -3.056857 -3.979844 -1.782406 0.000000 0.000000 0.000000 -0.402446 -0.249419 48.964388 -0.000000 0.000000 0.000000 -0.865710 1.152526 1.635855 0.000000 0.000000 0.000000
-50.599609 83.575521 356.537728 0.835579 -0.260734 -49.374619 -0.741951 -0.464425 49.373514 -0.000000 0.000000 0.000000 0.451412 0.985665 -0.976350 0.000000 0.000000 0.000000 0.866632 1.431446 -0.651980 -0.194303 0.132119 0.567988 9.390231 2.359334 -0.990904 -4.744376 1.632984 0.663657 0.000000 0.000000 0.000000 0.000000 0.000000 0.000000 0.903145 0.130158 0.091001 -2.218163 -0.141406 0.439086 -5.120911 -5.526756 2.562007 1.246307 15.559504 -2.236257 0.000000 0.000000 0.000000 0.000000 0.000000 0.000000 -1.478134 -1.495112 49.706024 0.390354 -0.822930 -0.306302 -5.176577 -6.691898 -3.692688 0.000000 0.000000 0.000000 -2.059765 -0.437341 49.543640 0.197411 -2.186227 0.069074 -0.961206 3.164594 2.700014 0.000000 0.000000 0.000000
-50.039289 83.727488 356.287890 1.150152 -0.362890 -49.754595 -0.463264 -0.015709 49.789312 0.117234 -0.112976 0.050646 -0.351860 1.563296 -1.503673 0.000000 0.000000 0.000000 0.072960 2.305550 -1.019474 0.494760 0.085216 0.713174 13.776887 2.617361 -1.307286 -7.766361 2.373787 0.856146 0.000000 0.000000 0.000000 0.000000 0.000000 0.000000 0.311355 0.153471 0.033020 -2.903425 0.315706 0.622932 -6.874682 -7.183750 3.330766 1.794118 20.367434 -2.805077 0.000000 0.000000 0.000000 0.000000 0.000000 0.000000 -1.988550 -2.160435 50.220931 0.550377 -1.104056 -0.438898 -7.332441 -9.163664 -5.468814 0.000000 0.000000 0.000000 -2.955058 -0.685194 49.993058 0.411380 -3.197365 0.111180 -1.331872 4.294890 3.558441 0.000000 0.000000 0.000000
-49.552011 83.879956 356.013889 1.396454 -0.446407 -50.104710 -0.526727 -0.004627 50.148949 0.137072 -0.121741 0.062759 -0.487008 2.011497 -1.936931 0.000000 0.000000 0.000000 -0.182456 3.114893 -1.294547 1.707277 -0.051456 0.787338 17.602227 2.233775 -1.376049 -10.792858 3.242888 0.994729 0.000000 0.000000 0.000000 0.000000 0.000000 0.000000 0.360164 -0.054200 0.024889 -3.325890 1.128685 0.804220 -8.206289 -8.169659 3.887063 2.155975 23.505981 -3.224606 0.000000 0.000000 0.000000 0.000000 0.000000 0.000000 -2.352800 -2.767206 50.689941 0.691265 -1.298831 -0.557054 -8.634079 -10.553296 -6.787777 0.000000 0.000000 0.000000 -3.753670 -0.948678 50.402864 0.693065 -4.154759 0.163942 -1.615837 5.152616 4.088168 0.000000 0.000000 0.000000
-49.137775 84.032926 355.715727 1.574767 -0.511381 -50.424918 -0.545190 0.016277 50.477563 0.147454 -0.116177 0.072331 -0.632948 2.424080 -2.334580 0.000000 0.000000 0.000000 -0.582005 3.964655 -1.535998 3.442516 -0.290978 0.810606 20.664628 1.284086 -1.134472 -13.560768 4.255780 1.125889 0.000000 0.000000 0.000000 0.000000 0.000000 0.000000 0.355841 -0.408444 0.005357 -3.484724 2.313574 0.989145 -9.167281 -8.510151 4.287908 2.295572 25.110889 -3.579762 0.000000 0.000000 0.000000 0.000000 0.000000 0.000000 -2.574792 -3.313245 51.115636 0.815704 -1.407538 -0.660375 -8.762445 -10.657369 -7.393804 0.000000 0.000000 0.000000 -4.451021 -1.224142 50.773481 1.036836 -5.059916 0.230784 -1.808951 5.752630 4.287334 0.000000 0.000000 0.000000
-48.777109 84.192353 355.381240 1.703490 -0.511187 -51.120212 -0.503319 0.090178 51.181195 0.169415 -0.066198 0.082596 -0.852696 2.753762 -2.747913 0.000000 0.000000 0.000000 -0.941161 4.785741 -1.819268 4.987085 -0.516235 0.922504 24.177064 -1.940883 -0.069243 -18.503919 6.720356 1.350662 0.000000 0.000000 0.000000 0.000000 0.000000 0.000000 0.333530 -1.898214 -0.061515 -3.898417 3.925189 1.260320 -5.574362 -6.086372 2.673800 -4.733418 26.558023 -0.192919 0.000000 0.000000 0.000000 0.000000 0.000000 0.000000 -2.587119 -3.921435 51.916644 0.925319 -1.405536 -0.760887 -4.876882 -6.637751 -6.938813 0.000000 0.000000 0.000000 -5.035536 -1.632691 51.506003 1.474634 -5.861155 0.299764 -1.223570 6.242282 3.638542 0.000000 0.000000 0.000000
-48.467077 84.395802 355.022392 1.795039 -0.550271 -51.255397 -0.421305 0.110797 51.324497 0.184807 -0.019848 0.090498 -0.991805 3.084055 -3.049341 0.000000 0.000000 0.000000 -1.789545 5.903647 -2.015672 8.124043 -0.846123 0.909426 23.822574 -4.219469 1.163305 -19.028784 8.091110 1.550199 0.000000 0.000000 0.000000 0.000000 0.000000 0.000000 -0.078358 -3.068084 -0.164864 -2.745711 4.455562 0.829300 -7.565249 -4.138364 4.334583 -6.778196 21.447379 0.156767 0.000000 0.000000 0.000000 0.000000 0.000000 0.000000 -2.551270 -4.401642 52.141447 1.037364 -1.337348 -0.835779 -5.031993 -6.509294 -5.674645 0.000000 0.000000 0.000000 -5.729102 -2.075151 51.682609 2.144025 -6.760643 0.398987 -0.876507 6.173671 2.627859 0.000000 0.000000 0.000000
-48.310732 84.609714 354.612613 1.760839 -0.542146 -51.397413 -0.166643 0.193929 51.475795 0.161162 0.010691 0.097317 -1.526791 3.490140 -3.332186 0.000000 0.000000 0.000000 -3.267486 7.281684 -2.087151 11.679595 -1.482898 1.007169 23.756451 -7.024555 2.633596 -16.823911 9.987276 1.567922 0.000000 0.000000 0.000000 0.000000 0.000000 0.000000 -0.456153 -3.457075 -0.232460 -1.765763 7.975686 1.122638 -8.459229 -18.170360 0.439743 -3.923514 28.551799 2.328009 0.000000 0.000000 0.000000 0.000000 0.000000 0.000000 -2.277915 -4.759266 52.354454 1.066735 -1.122562 -0.885660 -1.779905 -2.643901 -3.649669 0.000000 0.000000 0.000000 -5.990387 -2.487156 51.831147 2.550595 -7.388783 0.523521 -2.369961 5.370052 2.973090 0.000000 0.000000 0.000000
-48.256871 84.701485 354.319374 1.611447 -0.691747 -51.399357 -0.093282 0.126609 51.475836 0.026469 -0.002032 0.081994 -1.122286 4.013692 -3.578848 0.000000 0.000000 0.000000 -4.427036 8.761444 -2.028580 17.097750 -2.261513 0.982069 21.631784 -7.112669 3.406821 -13.292849 10.177501 1.330860 0.000000 0.000000 0.000000 0.000000 0.000000 0.000000 -0.686105 -2.330281 -0.226214 -0.386881 13.315165 1.844766 -13.967482 -16.830660 2.472494 7.086629 17.921578 -6.122657 0.000000 0.000000 0.000000 0.000000 0.000000 0.000000 -2.249549 -4.729847 52.402125 1.166592 -1.018467 -0.920502 0.090655 -0.095390 -1.679976 0.000000 0.000000 0.000000 -6.179891 -2.327058 51.868688 2.729971 -7.982546 0.629314 -2.531511 4.831733 2.195234 0.000000 0.000000 0.000000
-48.375069 84.706813 353.968026 1.331831 -0.877085 -52.068774 -0.009325 -0.006537 52.136713 -0.114619 -0.012976 0.059676 -1.183849 4.922682 -4.052640 0.000000 0.000000 0.000000 -5.531182 10.004316 -1.784507 23.693481 -3.227933 0.852367 21.734154 -3.914581 3.022831 -12.615169 4.247112 2.893474 0.000000 0.000000 0.000000 0.000000 0.000000 0.000000 -1.084765 -0.237690 -0.171243 1.278608 20.835139 3.051050 -19.741639 -6.532586 6.306762 14.638183 -3.322453 -12.538950 0.000000 0.000000 0.000000 0.000000 0.000000 0.000000 -1.870961 -4.630158 53.109225 1.237115 -0.698422 -0.925856 -3.905391 -4.698887 -2.989254 0.000000 0.000000 0.000000 -5.870884 -1.749845 52.557031 2.608155 -8.408711 0.793459 -3.395444 4.224367 1.868543 0.000000 0.000000 0.000000
-48.637220 84.570737 353.742549 0.838639 -0.967208 -52.384429 -0.022816 -0.165160 52.426976 -0.236891 -0.013090 0.024028 -0.136854 4.904886 -3.837709 0.000000 0.000000 0.000000 -6.574650 10.437045 -1.265373 32.751713 -4.049135 0.267778 21.319020 -0.725997 2.661278 -12.003910 -0.714832 5.086006 0.000000 0.000000 0.000000 0.000000 0.000000 0.000000 -1.147600 2.443875 -0.002310 2.492666 29.735496 4.731531 -31.127656 6.646768 12.714300 20.475383 -21.431636 -18.026492 0.000000 0.000000 0.000000 0.000000 0.000000 0.000000 -1.443762 -4.118302 53.398046 1.050439 -0.690626 -0.876631 -10.303827 -11.680856 -6.704128 0.000000 0.000000 0.000000 -4.905386 -0.694507 52.852012 1.727181 -8.384776 0.905340 -7.186754 0.455557 2.343386 0.000000 0.000000 0.000000
-48.850866 84.322323 353.711503 0.032372 -0.956259 -52.086691 -0.084283 -0.314251 52.084772 -0.303129 -0.011630 -0.023957 0.912687 4.364764 -3.201085 0.000000 0.000000 0.000000 -7.638505 11.507889 -0.838567 43.692157 -6.246408 0.625797 21.687809 -1.108608 4.131170 -9.149693 -0.004114 6.434454 0.000000 0.000000 0.000000 0.000000 0.000000 0.000000 -0.717207 4.615713 0.206000 2.742574 39.257879 6.864657 -36.253113 12.893761 13.403879 18.892518 -20.893463 -21.710131 0.000000 0.000000 0.000000 0.000000 0.000000 0.000000 -0.988365 -3.079062 53.003881 0.658812 -0.968072 -0.780500 -13.162092 -14.563298 -8.244128 0.000000 0.000000 0.000000 -3.643308 1.034421 52.537184 1.318054 -8.914025 1.210054 -5.783330 4.143659 2.638140 0.000000 0.000000 0.000000
-48.992703 83.935940 353.851575 -1.048849 -1.014748 -51.426331 -0.065087 -0.412765 51.368755 -0.277806 -0.067181 -0.071862 2.769144 3.955388 -2.584380 0.000000 0.000000 0.000000 -9.177951 13.015053 -0.236622 55.294234 -8.517335 1.755943 26.133270 -7.991857 10.823168 -5.377010 5.451322 5.239262 0.000000 0.000000 0.000000 0.000000 0.000000 0.000000 0.045706 6.351296 0.401190 1.844565 47.350165 9.313215 -36.393056 13.360285 10.162043 12.827931 -4.404996 -25.086524 0.000000 0.000000 0.000000 0.000000 0.000000 0.000000 -0.507409 -1.543908 52.193744 0.058813 -1.351161 -0.653087 -10.893729 -12.602787 -6.789353 0.000000 0.000000 0.000000 -2.172262 3.507553 51.838702 0.741470 -9.756189 1.568453 -6.034957 6.638631 3.234399 0.000000 0.000000 0.000000
-49.062050 83.529811 353.981496 -1.997374 -1.070399 -50.815144 -0.406486 -0.547177 50.699773 -0.248832 0.003757 -0.128139 3.379063 2.858755 -1.534666 0.000000 0.000000 0.000000 -9.978171 14.025685 0.194440 65.935482 -10.325331 3.303852 40.437244 -24.197082 33.543557 2.451414 24.054137 -12.516034 0.000000 0.000000 0.000000 0.000000 0.000000 0.000000 1.317454 7.645902 0.617490 -0.064138 52.086596 11.678945 -34.718146 11.704382 6.822582 3.019615 7.362979 -27.877208 0.000000 0.000000 0.000000 0.000000 0.000000 0.000000 -0.096875 -0.194096 51.450236 -0.366200 -1.761666 -0.543278 -12.393571 -14.203864 -6.500687 0.000000 0.000000 0.000000 -0.762518 6.100486 51.144143 0.197358 -10.819128 1.975547 -7.188261 7.229723 2.966595 0.000000 0.000000 0.000000
-48.861634 83.013099 354.190373 -3.349393 -0.901277 -50.151432 -0.398304 -0.420051 49.977423 -0.088512 0.083885 -0.173223 3.265580 1.627595 -0.481039 0.000000 0.000000 0.000000 -11.384336 14.730901 0.797443 75.071264 -11.813100 5.011511 52.083366 -38.455803 66.179007 24.923147 28.418988 -41.271913 0.000000 0.000000 0.000000 0.000000 0.000000 0.000000 2.493764 8.540718 0.807109 -1.794177 54.656616 13.505084 -32.615230 9.508203 4.209100 -1.201887 14.712469 -28.059106 0.000000 0.000000 0.000000 0.000000 0.000000 0.000000 1.102194 1.128944 50.629508 -1.000683 -1.592006 -0.448490 -10.644970 -12.891450 -4.249367 0.000000 0.000000 0.000000 1.103777 8.865651 50.336330 0.328904 -12.556955 2.710926 -9.497294 9.727832 4.212858 0.000000 0.000000 0.000000
